<svg width="400" height="400" xmlns="http://www.w3.org/2000/svg">
 <!-- Created with Method Draw - http://github.com/duopixel/Method-Draw/ -->

 <g>
  <title>background</title>
  <rect fill="none" id="canvas_background" height="402" width="402" y="-1" x="-1"/>
 </g>
 <g>
  <title>Layer 1</title>
  <g stroke="null" id="svg_62">
   <path stroke="null" id="svg_45" d="m3141.291281,3016.021489l0,10.249c0,28.161 17.905,53.206 44.552,62.317c26.646,9.112 44.551,34.157 44.551,62.318l0,189.596c0,34.138 -27.674,61.812 -61.812,61.812l-110.188,0l-110.188,0c-34.138,0 -61.812,-27.674 -61.812,-61.812l0,-189.596c0,-28.161 17.905,-53.206 44.552,-62.317c26.646,-9.111 44.552,-34.156 44.552,-62.317l0,-10.249l165.793,0l0,-0.001z" fill="#9254d3"/>
   <path stroke="null" id="svg_46" d="m3103.621281,3069.334489l-90.453,0c-13.512,0 -24.85,-10.189 -26.288,-23.625l-11.357,-106.146c-1.671,-15.625 10.574,-29.25 26.288,-29.25l113.166,0c15.714,0 27.959,13.625 26.288,29.25l-11.357,106.146c-1.437,13.436 -12.775,23.625 -26.287,23.625z" fill="#aa6c47"/>
   <g stroke="null" fill="#ccf5fc" id="svg_51">
    <path stroke="null" id="svg_47" d="m3149.165281,3016.021489l-180.542,0c-13.853,0 -25.083,-11.23 -25.083,-25.083c0,-13.853 11.23,-25.083 25.083,-25.083l180.542,0c13.853,0 25.083,11.23 25.083,25.083c0,13.853 -11.23,25.083 -25.083,25.083z" fill="#a8ffff"/>
    <circle stroke="null" id="svg_48" cx="3119.707281" cy="3146.313489" r="22" fill="#a8ffff"/>
    <circle stroke="null" id="svg_49" cx="3139.707281" cy="3294.508489" r="22" fill="#a8ffff"/>
    <circle stroke="null" id="svg_50" cx="2959.859281" cy="3162.053489" r="22" fill="#a8ffff"/>
   </g>
   <path stroke="null" id="svg_52" d="m2999.507281,3252.869489l9.216,-28.661c2.667,-8.295 14.398,-8.309 17.085,-0.021l9.299,28.681l30.318,0c8.7,0 12.313,11.137 5.269,16.244l-24.467,17.74l9.383,28.601c2.715,8.276 -6.762,15.18 -13.807,10.06l-24.348,-17.697l-24.458,17.819c-7.036,5.127 -16.518,-1.759 -13.821,-10.037l9.376,-28.772l-24.521,-17.704c-7.062,-5.098 -3.455,-16.255 5.255,-16.255l30.221,0l0,0.002z" fill="#d300ac"/>
   <g stroke="null" id="svg_61">
    <path stroke="null" id="svg_53" d="m3189.078281,3079.126489c-22.602,-7.729 -37.787,-28.969 -37.787,-52.856l0,-0.396c17.885,-1.587 31.958,-16.646 31.958,-34.937c0,-18.872 -14.98,-34.304 -33.673,-35.048l1.633,-15.264c1.098,-10.265 -2.23,-20.555 -9.131,-28.233c-6.901,-7.676 -16.779,-12.079 -27.101,-12.079l-113.166,0c-10.323,0 -20.201,4.403 -27.101,12.082c-6.9,7.678 -10.229,17.968 -9.13,28.232l1.63,15.238c-19.155,0.223 -34.67,15.866 -34.67,35.073c0,18.631 14.599,33.91 32.957,35.013l0,0.319c0,23.886 -15.186,45.127 -37.787,52.855c-30.694,10.496 -51.316,39.341 -51.316,71.78l0,189.596c0,39.597 32.215,71.812 71.812,71.812l110.188,0l110.188,0c39.597,0 71.812,-32.215 71.812,-71.812l0,-49.798c0,-5.523 -4.478,-10 -10,-10s-10,4.477 -10,10l0,49.798c0,28.569 -23.243,51.812 -51.812,51.812l-110.188,0l-110.188,0c-28.569,0 -51.812,-23.243 -51.812,-51.812l0,-189.596c0,-23.886 15.186,-45.127 37.787,-52.854c20.694,-7.076 36.798,-22.499 45.102,-41.735c5.366,13.613 18.583,23.019 33.884,23.019l90.453,0c15.301,0 28.518,-9.406 33.885,-23.018c8.305,19.235 24.408,34.658 45.102,41.734c22.602,7.727 37.787,28.968 37.787,52.854l0,49.798c0,5.523 4.478,10 10,10s10,-4.477 10,-10l0,-49.798c0,-32.439 -20.622,-61.284 -51.316,-71.779zm-199.493,-153.363c3.158,-3.515 7.5,-5.45 12.226,-5.45l113.166,0c4.726,0 9.067,1.935 12.226,5.45s4.622,8.038 4.119,12.736l-1.857,17.355l-142.141,0l-1.857,-17.355c-0.503,-4.698 0.96,-9.222 4.118,-12.736zm-37.045,65.175c0,-8.317 6.767,-15.084 15.083,-15.084l180.542,0c8.316,0 15.083,6.767 15.083,15.084s-6.767,15.084 -15.083,15.084l-180.541,0c-8.317,0 -15.084,-6.767 -15.084,-15.084zm151.081,68.396l-90.453,0c-8.422,0 -15.448,-6.315 -16.344,-14.689l-1.993,-18.624l127.127,0l-1.992,18.624c-0.896,8.374 -7.924,14.689 -16.345,14.689z"/>
    <path stroke="null" id="svg_54" d="m3118.706281,3114.313489c-17.645,0 -32,14.355 -32,32s14.355,32 32,32s32,-14.355 32,-32s-14.355,-32 -32,-32zm0,44c-6.617,0 -12,-5.383 -12,-12s5.383,-12 12,-12s12,5.383 12,12s-5.382,12 -12,12z"/>
    <path stroke="null" id="svg_55" d="m3138.706281,3326.508489c17.645,0 32,-14.355 32,-32s-14.355,-32 -32,-32s-32,14.355 -32,32s14.356,32 32,32zm0,-44c6.617,0 12,5.383 12,12s-5.383,12 -12,12s-12,-5.383 -12,-12s5.383,-12 12,-12z"/>
    <path stroke="null" id="svg_56" d="m2990.859281,3162.053489c0,-17.645 -14.355,-32 -32,-32s-32,14.355 -32,32s14.355,32 32,32c17.644,0 32,-14.355 32,-32zm-44,0c0,-6.617 5.383,-12 12,-12s12,5.383 12,12s-5.383,12 -12,12s-12,-5.383 -12,-12z"/>
    <path stroke="null" id="svg_57" d="m3039.463281,3186.883489c1.86,-1.86 2.931,-4.44 2.931,-7.07s-1.07,-5.21 -2.931,-7.07c-1.859,-1.86 -4.439,-2.93 -7.069,-2.93s-5.21,1.07 -7.07,2.93s-2.93,4.44 -2.93,7.07s1.069,5.21 2.93,7.07c1.86,1.86 4.44,2.93 7.07,2.93s5.21,-1.07 7.069,-2.93z"/>
    <path stroke="null" id="svg_58" d="m3173.774281,3215.383489c1.86,-1.86 2.93,-4.44 2.93,-7.07s-1.069,-5.21 -2.93,-7.07c-1.86,-1.86 -4.43,-2.93 -7.07,-2.93c-2.63,0 -5.21,1.07 -7.069,2.93c-1.86,1.86 -2.931,4.44 -2.931,7.07s1.07,5.21 2.931,7.07c1.859,1.86 4.439,2.93 7.069,2.93c2.64,0 5.21,-1.07 7.07,-2.93z"/>
    <path stroke="null" id="svg_59" d="m3083.475281,3255.991489c-2.586,-7.971 -9.671,-13.122 -18.051,-13.122l-23.048,0l-7.057,-21.765c-2.545,-7.853 -9.798,-13.125 -18.052,-13.125c-0.007,0 -0.015,0 -0.022,0c-8.263,0.01 -15.514,5.301 -18.043,13.168l-6.985,21.722l-22.933,0c-8.389,0 -15.476,5.158 -18.056,13.14c-2.581,7.982 0.146,16.312 6.948,21.223l18.607,13.434l-7.115,21.836c-2.598,7.972 0.107,16.307 6.892,21.234c3.389,2.461 7.27,3.691 11.151,3.69c3.891,0 7.782,-1.236 11.175,-3.707l18.575,-13.534l18.463,13.418c6.786,4.933 15.554,4.926 22.332,-0.013c6.779,-4.94 9.471,-13.282 6.857,-21.253l-7.109,-21.669l18.561,-13.458c6.783,-4.919 9.496,-13.248 6.91,-21.219zm-43.118,22.767c-3.519,2.551 -4.986,7.083 -3.632,11.213l8.396,25.593l-21.789,-15.836c-3.509,-2.55 -8.261,-2.547 -11.768,0.007l-21.902,15.958l8.396,-25.767c1.347,-4.132 -0.13,-8.662 -3.654,-11.206l-21.954,-15.851l27.056,0c4.344,0 8.19,-2.804 9.52,-6.939l8.246,-25.644l8.321,25.667c1.337,4.124 5.178,6.916 9.513,6.916l27.164,0l-21.913,15.889z"/>
    <path stroke="null" id="svg_60" d="m3230.394281,3235.703489c-2.63,0 -5.21,1.07 -7.07,2.93s-2.93,4.44 -2.93,7.07s1.069,5.211 2.93,7.07c1.86,1.86 4.44,2.93 7.07,2.93s5.21,-1.07 7.069,-2.93c1.86,-1.86 2.931,-4.44 2.931,-7.07s-1.07,-5.21 -2.931,-7.07c-1.859,-1.86 -4.439,-2.93 -7.069,-2.93z"/>
   </g>
  </g>
  <g id="svg_83">
   <g stroke="null" id="svg_65">
    <path stroke="null" id="svg_63" d="m175.524096,132.732968l2.924764,-9.095776c0.846392,-2.632478 4.56931,-2.636921 5.422049,-0.006665l2.951105,9.102124l9.621637,0c2.761008,0 3.90762,3.534408 1.672155,5.155151l-7.76478,5.629918l2.977763,9.076735c0.861625,2.626449 -2.14597,4.817483 -4.381752,3.192614l-7.727015,-5.616271l-7.761924,5.654989c-2.232926,1.627091 -5.242107,-0.558231 -4.386195,-3.185315l2.975542,-9.131003l-7.781917,-5.618493c-2.241177,-1.617887 -1.096469,-5.158642 1.667712,-5.158642l9.590854,0l0,0.000635z" fill="#d300ac"/>
    <path stroke="null" id="svg_64" d="m202.172246,133.719213c-0.820686,-2.529655 -3.069162,-4.164362 -5.728616,-4.164362l-7.31445,0l-2.23959,-6.907281c-0.807674,-2.492207 -3.109466,-4.165314 -5.728933,-4.165314c-0.002222,0 -0.00476,0 -0.006982,0c-2.622323,0.003174 -4.923481,1.682311 -5.726077,4.17896l-2.21674,6.893634l-7.277954,0c-2.66231,0 -4.911421,1.636929 -5.730203,4.170074c-0.819099,2.533146 0.046334,5.176732 2.204998,6.735273l5.905067,4.263377l-2.257997,6.929813c-0.824494,2.529972 0.033957,5.175145 2.187226,6.738764c1.075524,0.781016 2.307187,1.171366 3.538851,1.171048c1.234837,0 2.469674,-0.392254 3.546467,-1.176443l5.894911,-4.295113l5.859367,4.2583c2.153586,1.565523 4.936175,1.563302 7.087222,-0.004126c2.151365,-1.567745 3.005691,-4.215139 2.176119,-6.744794l-2.256093,-6.876814l5.890468,-4.270994c2.152634,-1.56108 3.013625,-4.204349 2.192939,-6.734004zm-13.68381,7.225273c-1.11678,0.809578 -1.582343,2.247841 -1.152642,3.558527l2.664532,8.122124l-6.914897,-5.02567c-1.113607,-0.809261 -2.621688,-0.808309 -3.73466,0.002222l-6.950759,5.064387l2.664532,-8.177344c0.42748,-1.31132 -0.041256,-2.748949 -1.159623,-3.556305l-6.967261,-5.03043l8.586418,0c1.3786,0 2.599156,-0.88987 3.021241,-2.202142l2.616928,-8.13831l2.64073,8.145609c0.424307,1.308781 1.643276,2.194843 3.01902,2.194843l8.620693,0l-6.95425,5.042489z"/>
   </g>
   <g stroke="null" id="svg_66">
    <path stroke="null" id="svg_39" d="m226.73349,217.232844l0,3.995859c0,10.979354 6.980765,20.743848 17.369844,24.296026c10.388689,3.552568 17.369454,13.317062 17.369454,24.296416l0,73.919305c0,13.309654 -10.789483,24.099138 -24.099138,24.099138l-42.959875,0l-42.959875,0c-13.309654,0 -24.099138,-10.789483 -24.099138,-24.099138l0,-73.919305c0,-10.979354 6.980765,-20.743848 17.369844,-24.296026c10.388689,-3.552178 17.369844,-13.316672 17.369844,-24.296026l0,-3.995859l64.63904,0l0,-0.00039z" fill="#9254d3"/>
    <path stroke="null" id="svg_38" d="m212.046787,238.018409l-35.265633,0c-5.268031,0 -9.688468,-3.972467 -10.249112,-9.210867l-4.427844,-41.383988c-0.651486,-6.091843 4.12257,-11.403931 10.249112,-11.403931l44.120931,0c6.126543,0 10.900598,5.312087 10.249112,11.403931l-4.427844,41.383988c-0.560255,5.238401 -4.980691,9.210867 -10.248722,9.210867z" fill="#aa6c47"/>
    <path stroke="null" id="svg_37" d="m229.803389,217.232843l-70.38935,0c-5.40098,0 -9.779309,-4.37833 -9.779309,-9.779309c0,-5.40098 4.37833,-9.779309 9.779309,-9.779309l70.38935,0c5.40098,0 9.779309,4.37833 9.779309,9.779309c0,5.40098 -4.37833,9.779309 -9.779309,9.779309z" fill="#a8ffff"/>
    <circle transform="matrix(0.38987797844256344,0,0,0.38987797844256344,-1022.9657240162257,-963.9282906420322) " stroke="null" id="svg_36" cx="3183.775839" cy="3159.858169" r="22" fill="#a8ffff"/>
    <circle transform="matrix(0.38987797844256344,0,0,0.38987797844256344,-1022.9657240162257,-963.9282906420322) " stroke="null" id="svg_34" cx="3023.927839" cy="3175.598169" r="22" fill="#a8ffff"/>
    <path stroke="null" id="svg_31" d="m245.364589,241.836094c-8.812022,-3.013367 -14.732319,-11.294375 -14.732319,-20.60739l0,-0.154392c6.972968,-0.618736 12.45972,-6.489909 12.45972,-13.621167c0,-7.357777 -5.840372,-13.374374 -13.128361,-13.664443l0.636671,-5.951097c0.428086,-4.002097 -0.869428,-8.013942 -3.559976,-11.007425c-2.690548,-2.992703 -6.541763,-4.709336 -10.566083,-4.709336l-44.120931,0c-4.02471,0 -7.875925,1.716633 -10.566083,4.710506c-2.690158,2.993483 -3.988062,7.005328 -3.559586,11.007035l0.635501,5.940961c-7.468113,0.086943 -13.51707,6.185804 -13.51707,13.67419c0,7.263817 5.691829,13.220762 12.849209,13.650798l0,0.124371c0,9.312625 -5.920687,17.594024 -14.732319,20.607001c-11.966915,4.092159 -20.006978,15.33819 -20.006978,27.985441l0,73.919305c0,15.437998 12.559919,27.997917 27.997917,27.997917l42.959875,0l42.959875,0c15.437998,0 27.997917,-12.559919 27.997917,-27.997917l0,-19.415144c0,-2.153296 -1.745874,-3.89878 -3.89878,-3.89878s-3.89878,1.745484 -3.89878,3.89878l0,19.415144c0,11.138424 -9.061934,20.200358 -20.200358,20.200358l-42.959875,0l-42.959875,0c-11.138424,0 -20.200358,-9.061934 -20.200358,-20.200358l0,-73.919305c0,-9.312625 5.920687,-17.594024 14.732319,-20.606611c8.068135,-2.758777 14.34673,-8.771865 17.584277,-16.271557c2.092085,5.307409 7.245102,8.974601 13.210625,8.974601l35.265633,0c5.965523,0 11.11854,-3.667192 13.211015,-8.974211c3.237937,7.499303 9.516142,13.512391 17.584277,16.271168c8.812022,3.012587 14.732319,11.293985 14.732319,20.606611l0,19.415144c0,2.153296 1.745874,3.89878 3.89878,3.89878s3.89878,-1.745484 3.89878,-3.89878l0,-19.415144c0,-12.647252 -8.040064,-23.893282 -20.006978,-27.985051zm-77.777928,-59.792856c1.231235,-1.370421 2.924085,-2.124835 4.766648,-2.124835l44.120931,0c1.842563,0 3.535024,0.754414 4.766648,2.124835s1.802016,3.133839 1.605907,4.965486l-0.724003,6.766332l-55.417646,0l-0.724003,-6.766332c-0.196109,-1.831647 0.374283,-3.595455 1.605518,-4.965486zm-14.44303,25.410297c0,-3.242615 2.638304,-5.880919 5.88053,-5.880919l70.38935,0c3.242225,0 5.88053,2.638304 5.88053,5.880919s-2.638304,5.880919 -5.88053,5.880919l-70.38896,0c-3.242615,0 -5.880919,-2.638304 -5.880919,-5.880919zm58.903155,26.666094l-35.265633,0c-3.283552,0 -6.022835,-2.462079 -6.372166,-5.726918l-0.777027,-7.261087l49.564018,0l-0.776637,7.261087c-0.349331,3.264838 -3.089393,5.726918 -6.372556,5.726918z"/>
    <path stroke="null" id="svg_30" d="m217.928096,255.55473c-6.879397,0 -12.476095,5.596698 -12.476095,12.476095s5.596698,12.476095 12.476095,12.476095s12.476095,-5.596698 12.476095,-12.476095s-5.596698,-12.476095 -12.476095,-12.476095zm0,17.154631c-2.579823,0 -4.678536,-2.098713 -4.678536,-4.678536s2.098713,-4.678536 4.678536,-4.678536s4.678536,2.098713 4.678536,4.678536s-2.098323,4.678536 -4.678536,4.678536z"/>
    <path stroke="null" id="svg_28" d="m168.083366,274.167505c0,-6.879397 -5.596698,-12.476095 -12.476095,-12.476095s-12.476095,5.596698 -12.476095,12.476095s5.596698,12.476095 12.476095,12.476095c6.879007,0 12.476095,-5.596698 12.476095,-12.476095zm-17.154631,0c0,-2.579823 2.098713,-4.678536 4.678536,-4.678536s4.678536,2.098713 4.678536,4.678536s-2.098713,4.678536 -4.678536,4.678536s-4.678536,-2.098713 -4.678536,-4.678536z"/>
    <path stroke="null" id="svg_27" d="m207.032995,302.848175c0.725173,-0.725173 1.142732,-1.731058 1.142732,-2.756437s-0.417169,-2.031264 -1.142732,-2.756437c-0.724783,-0.725173 -1.730668,-1.142342 -2.756047,-1.142342s-2.031264,0.417169 -2.756437,1.142342s-1.142342,1.731058 -1.142342,2.756437s0.41678,2.031264 1.142342,2.756437c0.725173,0.725173 1.731058,1.142342 2.756437,1.142342s2.031264,-0.417169 2.756047,-1.142342z"/>
    <path stroke="null" id="svg_26" d="m239.397896,294.959698c0.725173,-0.725173 1.142342,-1.731058 1.142342,-2.756437s-0.41678,-2.031264 -1.142342,-2.756437c-0.725173,-0.725173 -1.727159,-1.142342 -2.756437,-1.142342c-1.025379,0 -2.031264,0.417169 -2.756047,1.142342c-0.725173,0.725173 -1.142732,1.731058 -1.142732,2.756437s0.417169,2.031264 1.142732,2.756437c0.724783,0.725173 1.730668,1.142342 2.756047,1.142342c1.029278,0 2.031264,-0.417169 2.756437,-1.142342z"/>
    <path stroke="null" id="svg_24" d="m261.472787,302.882018c-1.025379,0 -2.031264,0.417169 -2.756437,1.142342s-1.142342,1.731058 -1.142342,2.756437s0.41678,2.031654 1.142342,2.756437c0.725173,0.725173 1.731058,1.142342 2.756437,1.142342s2.031264,-0.417169 2.756047,-1.142342c0.725173,-0.725173 1.142732,-1.731058 1.142732,-2.756437s-0.417169,-2.031264 -1.142732,-2.756437c-0.724783,-0.725173 -1.730668,-1.142342 -2.756047,-1.142342z"/>
    <g id="svg_74">
     <circle transform="matrix(0.38987797844256344,0,0,0.38987797844256344,-1022.9657240162257,-963.9282906420322) " stroke="null" id="svg_35" cx="3203.775839" cy="3308.053169" r="22" fill="#a8ffff"/>
     <path stroke="null" id="svg_29" d="m225.725655,338.284888c6.879397,0 12.476095,-5.596698 12.476095,-12.476095s-5.596698,-12.476095 -12.476095,-12.476095s-12.476095,5.596698 -12.476095,12.476095s5.597088,12.476095 12.476095,12.476095zm0,-17.154631c2.579823,0 4.678536,2.098713 4.678536,4.678536s-2.098713,4.678536 -4.678536,4.678536s-4.678536,-2.098713 -4.678536,-4.678536s2.098713,-4.678536 4.678536,-4.678536z"/>
    </g>
    <g id="svg_77">
     <circle transform="matrix(0.38987797844256344,0,0,0.38987797844256344,-1022.9657240162257,-963.9282906420322) " stroke="null" id="svg_75" cx="3072.965681" cy="3264.449783" r="22" fill="#a8ffff"/>
     <path stroke="null" id="svg_76" d="m174.725655,321.284888c6.879397,0 12.476096,-5.596698 12.476096,-12.476095s-5.596699,-12.476096 -12.476096,-12.476096s-12.476095,5.596699 -12.476095,12.476096s5.597088,12.476095 12.476095,12.476095zm0,-17.154631c2.579823,0 4.678536,2.098713 4.678536,4.678536s-2.098713,4.678535 -4.678536,4.678535s-4.678535,-2.098713 -4.678535,-4.678535s2.098713,-4.678536 4.678535,-4.678536z"/>
    </g>
    <g id="svg_80">
     <circle transform="matrix(0.38987797844256344,0,0,0.38987797844256344,-1022.9657240162257,-963.9282906420322) " stroke="null" id="svg_78" cx="3114.004162" cy="3354.22146" r="22" fill="#a8ffff"/>
     <path stroke="null" id="svg_79" d="m190.725655,356.284888c6.879397,0 12.476096,-5.596698 12.476096,-12.476095s-5.596699,-12.476096 -12.476096,-12.476096s-12.476095,5.596699 -12.476095,12.476096s5.597088,12.476095 12.476095,12.476095zm0,-17.154631c2.579823,0 4.678536,2.098713 4.678536,4.678536s-2.098713,4.678535 -4.678536,4.678535s-4.678535,-2.098713 -4.678535,-4.678535s2.098713,-4.678536 4.678535,-4.678536z"/>
    </g>
    <path stroke="null" id="svg_81" d="m187.032995,262.848175c0.725173,-0.725173 1.142733,-1.731058 1.142733,-2.756437s-0.41717,-2.031264 -1.142733,-2.756437c-0.724783,-0.725173 -1.730668,-1.142343 -2.756047,-1.142343s-2.031265,0.41717 -2.756438,1.142343s-1.142342,1.731058 -1.142342,2.756437s0.41678,2.031264 1.142342,2.756437c0.725173,0.725173 1.731059,1.142343 2.756438,1.142343s2.031264,-0.41717 2.756047,-1.142343z"/>
    <path stroke="null" id="svg_82" d="m159.032995,339.848175c0.725173,-0.725173 1.142733,-1.731058 1.142733,-2.756437s-0.41717,-2.031264 -1.142733,-2.756437c-0.724783,-0.725173 -1.730668,-1.142343 -2.756047,-1.142343s-2.031265,0.41717 -2.756438,1.142343s-1.142342,1.731058 -1.142342,2.756437s0.41678,2.031264 1.142342,2.756437c0.725173,0.725173 1.731059,1.142343 2.756438,1.142343s2.031264,-0.41717 2.756047,-1.142343z"/>
   </g>
   <g transform="rotate(14.048823356628418 220.18832397460935,97.02272796630857) " stroke="null" id="svg_69">
    <path stroke="null" id="svg_67" d="m214.524096,90.732968l2.924764,-9.095776c0.846392,-2.632479 4.56931,-2.636922 5.422049,-0.006665l2.951105,9.102124l9.621637,0c2.761008,0 3.90762,3.534408 1.672156,5.155151l-7.76478,5.629918l2.977763,9.076735c0.861625,2.626449 -2.14597,4.817483 -4.381752,3.192614l-7.727014,-5.616271l-7.761924,5.654989c-2.232926,1.62709 -5.242107,-0.558232 -4.386195,-3.185315l2.975542,-9.131003l-7.781918,-5.618493c-2.241177,-1.617887 -1.096469,-5.158642 1.667713,-5.158642l9.590854,0l0,0.000634z" fill="#d300ac"/>
    <path stroke="null" id="svg_68" d="m241.172246,91.719213c-0.820686,-2.529655 -3.069162,-4.164362 -5.728616,-4.164362l-7.31445,0l-2.23959,-6.907281c-0.807675,-2.492206 -3.109467,-4.165314 -5.728934,-4.165314c-0.002221,0 -0.00476,0 -0.006981,0c-2.622323,0.003174 -4.923481,1.682311 -5.726077,4.17896l-2.216741,6.893635l-7.277954,0c-2.66231,0 -4.911421,1.636929 -5.730203,4.170074c-0.819099,2.533146 0.046335,5.176732 2.204999,6.735273l5.905066,4.263378l-2.257997,6.929813c-0.824494,2.529972 0.033958,5.175145 2.187227,6.738764c1.075523,0.781016 2.307187,1.171365 3.53885,1.171048c1.234837,0 2.469675,-0.392253 3.546468,-1.176443l5.894911,-4.295113l5.859367,4.258299c2.153586,1.565524 4.936175,1.563302 7.087222,-0.004125c2.151365,-1.567745 3.005691,-4.215139 2.176119,-6.744794l-2.256093,-6.876815l5.890468,-4.270994c2.152634,-1.56108 3.013625,-4.204349 2.192939,-6.734003zm-13.68381,7.225272c-1.116781,0.809579 -1.582344,2.247842 -1.152642,3.558527l2.664532,8.122125l-6.914898,-5.02567c-1.113606,-0.809261 -2.621688,-0.808309 -3.73466,0.002222l-6.950759,5.064387l2.664532,-8.177345c0.42748,-1.31132 -0.041257,-2.748948 -1.159624,-3.556305l-6.967261,-5.03043l8.586418,0c1.3786,0 2.599156,-0.88987 3.021241,-2.202142l2.616928,-8.13831l2.64073,8.145609c0.424307,1.308781 1.643276,2.194843 3.01902,2.194843l8.620692,0l-6.954249,5.042489z"/>
   </g>
   <g transform="rotate(55.17966079711914 168.18832397460935,50.02272796630859) " stroke="null" id="svg_72">
    <path stroke="null" id="svg_70" d="m162.524096,43.732968l2.924764,-9.095776c0.846392,-2.632479 4.56931,-2.636922 5.422049,-0.006665l2.951105,9.102124l9.621637,0c2.761008,0 3.90762,3.534408 1.672156,5.155151l-7.76478,5.629918l2.977763,9.076735c0.861625,2.626449 -2.14597,4.817483 -4.381752,3.192614l-7.727014,-5.616271l-7.761924,5.654989c-2.232926,1.62709 -5.242107,-0.558232 -4.386195,-3.185315l2.975542,-9.131003l-7.781918,-5.618493c-2.241177,-1.617887 -1.096469,-5.158642 1.667713,-5.158642l9.590854,0l0,0.000634z" fill="#d300ac"/>
    <path stroke="null" id="svg_71" d="m189.172246,44.719213c-0.820686,-2.529655 -3.069162,-4.164362 -5.728616,-4.164362l-7.31445,0l-2.23959,-6.907281c-0.807675,-2.492206 -3.109467,-4.165314 -5.728934,-4.165314c-0.002221,0 -0.00476,0 -0.006981,0c-2.622323,0.003174 -4.923481,1.682311 -5.726077,4.17896l-2.216741,6.893635l-7.277954,0c-2.66231,0 -4.911421,1.636929 -5.730203,4.170074c-0.819099,2.533146 0.046335,5.176732 2.204999,6.735273l5.905066,4.263378l-2.257997,6.929813c-0.824494,2.529972 0.033958,5.175145 2.187227,6.738764c1.075523,0.781016 2.307187,1.171365 3.53885,1.171048c1.234837,0 2.469675,-0.392253 3.546468,-1.176443l5.894911,-4.295113l5.859367,4.258299c2.153586,1.565524 4.936175,1.563302 7.087222,-0.004125c2.151365,-1.567745 3.005691,-4.215139 2.176119,-6.744794l-2.256093,-6.876815l5.890468,-4.270994c2.152634,-1.56108 3.013625,-4.204349 2.192939,-6.734003zm-13.68381,7.225272c-1.116781,0.809579 -1.582344,2.247842 -1.152642,3.558527l2.664532,8.122125l-6.914898,-5.02567c-1.113606,-0.809261 -2.621688,-0.808309 -3.73466,0.002222l-6.950759,5.064387l2.664532,-8.177345c0.42748,-1.31132 -0.041257,-2.748948 -1.159624,-3.556305l-6.967261,-5.03043l8.586418,0c1.3786,0 2.599156,-0.88987 3.021241,-2.202142l2.616928,-8.13831l2.64073,8.145609c0.424307,1.308781 1.643276,2.194843 3.01902,2.194843l8.620692,0l-6.954249,5.042489z"/>
   </g>
  </g>
 </g>
</svg>